<svg xmlns="http://www.w3.org/2000/svg" viewBox="0 0 122.88 122.88">
    <path d="M61.44 0c16.97 0 32.33 6.88 43.44 18 11.12 11.12 18 26.48 18 43.44 0 16.97-6.88 32.33-18 43.44-11.12 11.12-26.48 18-43.44 18-16.97 0-32.33-6.88-43.44-18C6.88 93.77 0 78.41 0 61.44S6.88 29.11 18 18C29.11 6.88 44.47 0 61.44 0zM34.22 54.89a2.439 2.439 0 0 1-3.09 1.51 2.439 2.439 0 0 1-1.51-3.09A37.493 37.493 0 0 1 50.15 31.2a2.43 2.43 0 0 1 3.19 1.27 2.43 2.43 0 0 1-1.27 3.19c-4.17 1.8-7.89 4.46-10.95 7.76-3.03 3.27-5.4 7.17-6.9 11.47zm-12.93-2.44a2.424 2.424 0 0 1-2.96 1.76 2.43 2.43 0 0 1-1.76-2.97c1.96-7.68 5.79-14.61 10.96-20.29a47.84 47.84 0 0 1 19.21-12.82c1.27-.45 2.67.21 3.12 1.48.45 1.27-.21 2.67-1.48 3.12a43.078 43.078 0 0 0-17.25 11.5 42.862 42.862 0 0 0-9.84 18.22zm40.15-5.31c3.95 0 7.53 1.6 10.11 4.19 2.59 2.59 4.19 6.16 4.19 10.11 0 3.95-1.6 7.53-4.19 10.11a14.245 14.245 0 0 1-10.11 4.19c-3.95 0-7.53-1.6-10.11-4.19a14.245 14.245 0 0 1-4.19-10.11c0-3.95 1.6-7.53 4.19-10.11 2.58-2.59 6.16-4.19 10.11-4.19zm6.6 7.7a9.295 9.295 0 0 0-6.6-2.73c-2.58 0-4.91 1.05-6.6 2.73a9.295 9.295 0 0 0-2.73 6.6c0 2.58 1.05 4.91 2.73 6.6a9.295 9.295 0 0 0 6.6 2.73c2.58 0 4.91-1.05 6.6-2.73a9.295 9.295 0 0 0 2.73-6.6c0-2.58-1.04-4.91-2.73-6.6zm32.8-32.8C90.76 11.96 76.83 5.72 61.44 5.72s-29.32 6.24-39.4 16.32C11.96 32.12 5.72 46.05 5.72 61.44c0 15.39 6.24 29.32 16.32 39.4 10.08 10.08 24.01 16.32 39.4 16.32s29.32-6.24 39.4-16.32c10.08-10.08 16.32-24.01 16.32-39.4 0-15.39-6.24-29.32-16.32-39.4z"/>
</svg>